<svg width="8" height="18" viewBox="0 0 8 18" fill="none" xmlns="http://www.w3.org/2000/svg">
<path fill-rule="evenodd" clip-rule="evenodd" d="M7.73106 8.35036C7.90334 8.52265 8 8.75606 8 8.99959C8 9.24313 7.90318 9.47654 7.73106 9.64883C6.07336 11.3065 1.72152 15.6584 0.39168 16.9882C0.325993 17.0539 0.227379 17.0735 0.141643 17.0379C0.055906 17.0024 1.62958e-09 16.9188 2.73553e-09 16.826L3.9188e-08 13.7692C4.08985e-08 13.6257 0.0539532 13.4877 0.151261 13.3822C0.839257 12.6357 3.66222 9.57284 4.1256 9.07015C4.16211 9.03038 4.16211 8.96975 4.1256 8.92997C3.66222 8.42712 0.839257 5.36444 0.151261 4.6179C0.054116 4.51244 1.5122e-07 4.37438 1.5293e-07 4.23094L1.89383e-07 1.1741C1.90489e-07 1.08135 0.0559062 0.997736 0.141643 0.962206C0.227379 0.926672 0.325993 0.946396 0.39168 1.01192L7.73106 8.3513L7.73106 8.35036Z" fill="#808080"/>
</svg>
