<svg width="8" height="18" viewBox="0 0 8 18" fill="none" xmlns="http://www.w3.org/2000/svg">
<path fill-rule="evenodd" clip-rule="evenodd" d="M0.268943 9.64964C0.0966564 9.47735 -3.62776e-07 9.24394 -3.52131e-07 9.00041C-3.41486e-07 8.75687 0.0968195 8.52346 0.268943 8.35117C1.92664 6.69348 6.27848 2.34164 7.60832 1.0118C7.67401 0.946109 7.77262 0.926547 7.85836 0.962082C7.94409 0.997615 8 1.08123 8 1.17398L8 4.23082C8 4.37426 7.94605 4.51231 7.84874 4.61777C7.16074 5.36431 4.33778 8.42716 3.8744 8.92985C3.83789 8.96962 3.83789 9.03025 3.8744 9.07003C4.33778 9.57288 7.16074 12.6356 7.84874 13.3821C7.94588 13.4876 8 13.6256 8 13.7691L8 16.8259C8 16.9186 7.94409 17.0023 7.85836 17.0378C7.77262 17.0733 7.67401 17.0536 7.60832 16.9881L0.268943 9.6487L0.268943 9.64964Z" fill="#808080"/>
</svg>
