<?xml version="1.0" encoding="utf-8"?>
<!-- Generator: Adobe Illustrator 23.0.3, SVG Export Plug-In . SVG Version: 6.00 Build 0)  -->
<svg version="1.1" id="Layer_1" xmlns="http://www.w3.org/2000/svg" xmlns:xlink="http://www.w3.org/1999/xlink" x="0px" y="0px"
	 viewBox="0 0 100 100" enable-background="new 0 0 100 100" xml:space="preserve">
<rect x="60.27" y="16.97" width="5.61" height="76.45"/>
<path d="M25.59,89.41c0,2.26,1.84,4.09,4.09,4.09h27.59V16.97H29.68c-2.26,0-4.09,1.84-4.09,4.09v8.34c0,0,0,0,0,0s0,0,0,0V89.41z
	 M46.69,23.69c0-0.83,0.67-1.5,1.5-1.5s1.5,0.67,1.5,1.5v23.26c0,0.83-0.67,1.5-1.5,1.5s-1.5-0.67-1.5-1.5V23.69z M38.58,39.71
	c0-0.83,0.67-1.5,1.5-1.5s1.5,0.67,1.5,1.5v7.25c0,0.83-0.67,1.5-1.5,1.5s-1.5-0.67-1.5-1.5V39.71z M36.46,62.89
	c0-3.94,3.2-7.14,7.14-7.14h1.8c3.94,0,7.14,3.2,7.14,7.14v18.08c0,3.94-3.2,7.14-7.14,7.14h-1.8c-3.94,0-7.14-3.2-7.14-7.14V62.89z
	"/>
<path d="M74.41,89.41V21.06c0-2.26-1.84-4.09-4.09-4.09h-1.44V93.5h1.44C72.57,93.5,74.41,91.66,74.41,89.41z"/>
<path d="M92.36,19.11v-3.8c0-4.85-3.95-8.8-8.8-8.8H16.45c-4.85,0-8.8,3.95-8.8,8.8v3.8c0,4.85,3.95,8.8,8.8,8.8h6.14v-6.85
	c0-3.91,3.18-7.09,7.09-7.09h29.09h8.61h2.94c3.91,0,7.09,3.18,7.09,7.09v6.85h6.15C88.41,27.91,92.36,23.96,92.36,19.11z"/>
<path d="M43.6,85.11h1.8c2.28,0,4.14-1.86,4.14-4.14V62.89c0-2.28-1.86-4.14-4.14-4.14h-1.8c-2.28,0-4.14,1.86-4.14,4.14v18.08
	C39.46,83.25,41.31,85.11,43.6,85.11z"/>
</svg>
