<svg width="80" height="80" viewBox="0 0 80 80" fill="none" xmlns="http://www.w3.org/2000/svg">
<circle cx="40" cy="40" r="39" fill="white" stroke="#F1F5FA" stroke-width="2"/>
<path d="M40 61.5C28.14 61.5 18.5 51.86 18.5 40C18.5 28.14 28.14 18.5 40 18.5C51.86 18.5 61.5 28.14 61.5 40C61.5 51.86 51.86 61.5 40 61.5ZM40 21.5C29.8 21.5 21.5 29.8 21.5 40C21.5 50.2 29.8 58.5 40 58.5C50.2 58.5 58.5 50.2 58.5 40C58.5 29.8 50.2 21.5 40 21.5Z" fill="#DE2828"/>
<path d="M40 43.5C39.18 43.5 38.5 42.82 38.5 42V32C38.5 31.18 39.18 30.5 40 30.5C40.82 30.5 41.5 31.18 41.5 32V42C41.5 42.82 40.82 43.5 40 43.5Z" fill="#DE2828"/>
<path d="M40 49.9978C39.74 49.9978 39.48 49.9378 39.24 49.8378C39 49.7378 38.78 49.5978 38.58 49.4178C38.4 49.2178 38.26 49.0178 38.16 48.7578C38.06 48.5178 38 48.2578 38 47.9978C38 47.7378 38.06 47.4778 38.16 47.2378C38.26 46.9978 38.4 46.7778 38.58 46.5778C38.78 46.3978 39 46.2578 39.24 46.1578C39.72 45.9578 40.28 45.9578 40.76 46.1578C41 46.2578 41.22 46.3978 41.42 46.5778C41.6 46.7778 41.74 46.9978 41.84 47.2378C41.94 47.4778 42 47.7378 42 47.9978C42 48.2578 41.94 48.5178 41.84 48.7578C41.74 49.0178 41.6 49.2178 41.42 49.4178C41.22 49.5978 41 49.7378 40.76 49.8378C40.52 49.9378 40.26 49.9978 40 49.9978Z" fill="#DE2828"/>
</svg>
